<?xml version="1.0" encoding="UTF-8" standalone="no"?>
<!DOCTYPE svg PUBLIC "-//W3C//DTD SVG 1.1//EN" "http://www.w3.org/Graphics/SVG/1.1/DTD/svg11.dtd">
<svg width="145px" height="48px" version="1.1" xmlns="http://www.w3.org/2000/svg" xmlns:xlink="http://www.w3.org/1999/xlink" xml:space="preserve" xmlns:serif="http://www.serif.com/" style="fill-rule:evenodd;clip-rule:evenodd;stroke-linejoin:round;stroke-miterlimit:2;">
    <g transform="matrix(0.24,0,0,0.24,-181.424,-489.489)">
        <g id="ABIGAIL-BRENNEN-VERT-LOGO" serif:id="ABIGAIL BRENNEN VERT LOGO" transform="matrix(0.716775,0,0,0.716775,214.241,577.791)">
            <g id="LAST-NAME" serif:id="LAST NAME" transform="matrix(1,0,0,1,-195.659,880.286)">
                <path d="M1753.76,1390.38C1753.76,1390.38 1731.47,1360.59 1711.05,1328.71C1711.05,1328.71 1700.84,1329.34 1693.13,1329.34C1683.55,1329.34 1671.88,1328.5 1671.88,1328.5L1670.63,1339.13L1672.09,1340.79C1683.13,1342.04 1685.84,1343.92 1685.84,1351L1683.55,1412.67C1683.34,1419.34 1680.42,1422.04 1673.55,1422.88L1672.09,1434.96C1672.09,1434.96 1684.59,1433.71 1694.59,1433.71C1701.88,1433.71 1717.72,1434.34 1717.72,1434.34L1719.59,1422.88L1718.34,1421.84C1718.34,1421.84 1713.34,1422.25 1711.47,1422.25C1706.88,1422.25 1705.42,1420.38 1705.22,1414.54L1705.22,1371.42L1707.09,1371.42C1707.09,1371.42 1728.76,1400.38 1753.76,1437.25L1775.22,1435.17L1777.51,1350.79C1777.72,1344.34 1780.63,1341.63 1788.34,1340.59L1789.17,1328.5C1789.17,1328.71 1776.47,1329.34 1767.92,1329.34C1759.8,1329.34 1744.17,1328.71 1744.17,1328.71L1742.92,1339.75L1743.76,1341L1749.38,1341C1753.34,1341 1754.8,1342.88 1755.01,1348.09L1755.63,1390.38L1753.76,1390.38ZM1517.51,1390.38C1517.51,1390.38 1495.21,1360.59 1474.8,1328.71C1474.8,1328.71 1464.59,1329.34 1456.88,1329.34C1447.3,1329.34 1435.63,1328.5 1435.63,1328.5L1434.38,1339.13L1435.84,1340.79C1446.88,1342.04 1449.59,1343.92 1449.59,1351L1447.3,1412.67C1447.09,1419.34 1444.17,1422.04 1437.3,1422.88L1435.84,1434.96C1435.84,1434.96 1448.34,1433.71 1458.34,1433.71C1465.63,1433.71 1481.46,1434.34 1481.46,1434.34L1483.34,1422.88L1482.09,1421.84C1482.09,1421.84 1477.09,1422.25 1475.21,1422.25C1470.63,1422.25 1469.17,1420.38 1468.96,1414.54L1468.96,1371.42L1470.84,1371.42C1470.84,1371.42 1492.51,1400.38 1517.51,1437.25L1538.97,1435.17L1541.26,1350.79C1541.47,1344.34 1544.38,1341.63 1552.09,1340.59L1552.92,1328.5C1552.92,1328.71 1540.22,1329.34 1531.67,1329.34C1523.55,1329.34 1507.92,1328.71 1507.92,1328.71L1506.67,1339.75L1507.51,1341L1513.13,1341C1517.09,1341 1518.55,1342.88 1518.76,1348.09L1519.38,1390.38L1517.51,1390.38ZM1387.92,1390.38C1387.92,1390.38 1365.63,1360.59 1345.21,1328.71C1345.21,1328.71 1335.01,1329.34 1327.3,1329.34C1317.71,1329.34 1306.05,1328.5 1306.05,1328.5L1304.8,1339.13L1306.26,1340.79C1317.3,1342.04 1320.01,1343.92 1320.01,1351L1317.71,1412.67C1317.51,1419.34 1314.59,1422.04 1307.71,1422.88L1306.26,1434.96C1306.26,1434.96 1318.76,1433.71 1328.76,1433.71C1336.05,1433.71 1351.88,1434.34 1351.88,1434.34L1353.76,1422.88L1352.51,1421.84C1352.51,1421.84 1347.51,1422.25 1345.63,1422.25C1341.05,1422.25 1339.59,1420.38 1339.38,1414.54L1339.38,1371.42L1341.26,1371.42C1341.26,1371.42 1362.92,1400.38 1387.92,1437.25L1409.38,1435.17L1411.67,1350.79C1411.88,1344.34 1414.8,1341.63 1422.51,1340.59L1423.34,1328.5C1423.34,1328.71 1410.63,1329.34 1402.09,1329.34C1393.96,1329.34 1378.34,1328.71 1378.34,1328.71L1377.09,1339.75L1377.92,1341L1383.55,1341C1387.51,1341 1388.96,1342.88 1389.17,1348.09L1389.8,1390.38L1387.92,1390.38ZM1133.34,1394.13L1147.09,1421.21C1151.88,1431.63 1157.92,1436.21 1166.05,1436.21L1187.92,1434.54L1189.38,1424.96L1187.92,1423.09C1181.26,1423.09 1175.63,1418.5 1169.38,1408.92L1155.63,1388.09C1170.01,1380.79 1177.92,1369.96 1177.92,1357.25C1177.92,1338.5 1163.13,1328.5 1135.42,1328.5C1135.42,1328.5 1115.21,1329.34 1107.92,1329.34C1101.05,1329.34 1085.63,1329.13 1085.63,1329.13L1083.96,1339.96L1085.21,1341.21C1085.21,1341.21 1088.76,1341 1091.26,1341C1095.01,1341 1096.26,1342.67 1096.26,1348.71L1096.26,1409.34C1096.26,1418.5 1093.55,1421.42 1084.38,1422.67L1082.92,1434.96C1082.92,1434.96 1097.51,1433.71 1108.76,1433.92C1116.26,1433.92 1132.92,1434.13 1132.92,1434.34L1134.59,1423.09L1133.96,1422.04C1122.92,1421.63 1121.67,1420.38 1121.67,1409.96L1121.88,1394.13L1133.34,1394.13ZM982.715,1433.71C990.84,1433.71 1005.84,1435.59 1013.55,1435.79C1046.46,1435.79 1067.92,1419.34 1067.92,1394.13C1067.92,1377.25 1055.21,1367.46 1038.55,1363.09C1051.67,1356.21 1060.84,1345.79 1060.84,1331.21C1060.84,1310.17 1045.42,1298.92 1016.67,1298.92C1016.67,1298.92 992.09,1299.96 984.798,1299.96C977.507,1299.96 955.84,1299.54 955.84,1299.54L953.965,1312.25L955.215,1313.92C955.215,1313.92 959.798,1313.5 962.298,1313.5C967.507,1313.5 969.173,1316.21 969.173,1323.92L968.965,1405.17C968.965,1416 965.632,1419.54 953.757,1421.63L952.09,1435.79C952.09,1435.79 970.84,1433.71 982.715,1433.71ZM1237.3,1409.34C1237.3,1405.17 1237.09,1399.34 1237.51,1389.34C1240.63,1389.13 1245.42,1388.5 1250.63,1388.5C1258.96,1388.5 1272.51,1388.92 1272.51,1388.92L1275.01,1373.5L1273.34,1371.63C1273.34,1371.63 1259.38,1373.09 1253.76,1373.09C1248.76,1373.09 1241.67,1372.88 1238.34,1372.88L1239.38,1349.75C1239.38,1345.38 1240.21,1344.75 1247.71,1344.75C1265.63,1344.75 1268.13,1346 1268.13,1354.54C1268.13,1356.84 1267.71,1361 1267.71,1361L1285.42,1359.75C1286.46,1344.54 1289.38,1329.34 1289.38,1329.34L1287.92,1327.46C1277.51,1328.71 1259.17,1329.34 1235.42,1329.34C1221.88,1329.34 1201.67,1328.92 1201.67,1328.92L1200.21,1339.75L1201.67,1341.21C1201.67,1341.21 1204.8,1341 1206.67,1341C1210.84,1341 1211.88,1342.67 1211.88,1349.75L1211.67,1408.92C1211.67,1418.5 1208.96,1421.84 1199.8,1423.09L1198.34,1435.38C1198.34,1435.38 1213.96,1433.71 1229.8,1433.71C1252.51,1433.71 1283.76,1434.75 1283.76,1434.75L1285.84,1432.88C1287.3,1416.63 1290.42,1401.63 1290.42,1401.63L1288.96,1399.75L1272.71,1401C1270.21,1416.84 1267.09,1419.13 1247.51,1419.13C1238.13,1419.13 1237.3,1417.88 1237.3,1409.34ZM1603.13,1409.34C1603.13,1405.17 1602.92,1399.34 1603.34,1389.34C1606.47,1389.13 1611.26,1388.5 1616.47,1388.5C1624.8,1388.5 1638.34,1388.92 1638.34,1388.92L1640.84,1373.5L1639.17,1371.63C1639.17,1371.63 1625.22,1373.09 1619.59,1373.09C1614.59,1373.09 1607.51,1372.88 1604.17,1372.88L1605.22,1349.75C1605.22,1345.38 1606.05,1344.75 1613.55,1344.75C1631.47,1344.75 1633.97,1346 1633.97,1354.54C1633.97,1356.84 1633.55,1361 1633.55,1361L1651.26,1359.75C1652.3,1344.54 1655.22,1329.34 1655.22,1329.34L1653.76,1327.46C1643.34,1328.71 1625.01,1329.34 1601.26,1329.34C1587.72,1329.34 1567.51,1328.92 1567.51,1328.92L1566.05,1339.75L1567.51,1341.21C1567.51,1341.21 1570.63,1341 1572.51,1341C1576.67,1341 1577.72,1342.67 1577.72,1349.75L1577.51,1408.92C1577.51,1418.5 1574.8,1421.84 1565.63,1423.09L1564.17,1435.38C1564.17,1435.38 1579.8,1433.71 1595.63,1433.71C1618.34,1433.71 1649.59,1434.75 1649.59,1434.75L1651.67,1432.88C1653.13,1416.63 1656.26,1401.63 1656.26,1401.63L1654.8,1399.75L1638.55,1401C1636.05,1416.84 1632.92,1419.13 1613.34,1419.13C1603.97,1419.13 1603.13,1417.88 1603.13,1409.34ZM1016.05,1375.17C1029.8,1378.29 1037.09,1386 1037.09,1397.04C1037.09,1410.17 1029.17,1417.88 1015.63,1417.88C1001.47,1417.88 996.048,1414.34 996.048,1405.59L996.882,1375.38L1016.05,1375.17ZM1122.3,1377.67C1122.51,1368.29 1122.92,1359.13 1123.76,1347.67C1123.76,1344.75 1124.38,1344.13 1126.67,1344.13C1143.13,1344.13 1150.84,1349.34 1150.84,1360.38C1150.84,1373.09 1141.88,1377.46 1137.09,1379.34L1122.3,1377.67ZM997.298,1356.84C997.507,1347.88 998.132,1331.42 998.965,1319.96C999.173,1317.04 1000.01,1316.21 1002.72,1316.21C1022.3,1316.21 1031.46,1322.67 1031.46,1336.63C1031.46,1353.71 1017.09,1358.71 1017.09,1358.71C1013.13,1358.71 997.298,1356.84 997.298,1356.84Z" style="fill:white;fill-rule:nonzero;stroke:black;stroke-width:1.4px;"/>
            </g>
            <g id="FIRST-NAME" serif:id="FIRST NAME" transform="matrix(1,0,0,1,481.757,756.328)">
                <path d="M875.84,1402.17C864.406,1424.22 853.961,1431.84 844.883,1431.84C838.008,1431.84 834.674,1429.34 834.674,1419.34C834.674,1399.75 856.341,1374.54 856.341,1367.67C856.341,1364.75 854.258,1363.09 851.758,1363.09C841.827,1363.09 831.077,1384.07 825.536,1402.08C813.397,1422.74 800.681,1432.88 793.424,1432.88C788.424,1432.88 786.341,1427.88 786.341,1423.71C786.341,1413.71 798.424,1399.54 798.424,1394.75C798.424,1391.63 792.591,1389.96 790.091,1389.54C779.883,1404.54 759.258,1434.96 746.341,1434.96C742.591,1434.96 740.716,1432.46 740.716,1426.84C740.716,1406.63 764.049,1367.88 783.633,1367.88C791.133,1367.88 793.841,1373.29 793.841,1379.54C793.841,1381.84 793.424,1384.54 792.799,1386.84C798.841,1386.84 803.008,1384.75 803.008,1377.88C803.008,1368.5 794.883,1362.25 784.049,1362.25C762.039,1362.25 737.689,1388.12 729.341,1411.12C722.084,1421.79 711.535,1430.31 701.341,1435.17C710.924,1410.38 717.383,1384.96 717.383,1378.09C715.716,1377.67 714.258,1377.46 713.008,1377.46C706.133,1377.46 703.216,1384.13 702.383,1388.09L699.883,1399.13C689.258,1414.34 676.966,1426.63 669.049,1426.63C664.674,1426.63 661.758,1423.09 661.758,1416.42C661.758,1398.92 681.758,1369.13 703.633,1369.13C707.799,1369.13 710.508,1370.17 711.966,1372.25C712.591,1372.04 714.466,1370.59 714.466,1368.09C714.466,1364.54 711.133,1361.42 703.216,1361.42C681.918,1361.42 651.472,1383.82 648.281,1410.78C638.733,1426.24 629.952,1431.84 622.174,1431.84C615.299,1431.84 611.966,1429.34 611.966,1419.34C611.966,1399.75 633.633,1374.54 633.633,1367.67C633.633,1364.75 631.549,1363.09 629.049,1363.09C618.822,1363.09 607.727,1385.34 602.346,1403.68C597.578,1412.62 590.537,1422.67 577.591,1422.67C575.716,1422.67 573.841,1422.46 572.174,1422.04C576.758,1412.88 579.466,1402.88 579.466,1393.71C579.466,1381.21 574.258,1374.54 566.341,1374.54C556.966,1374.54 548.841,1383.29 548.841,1396.63C548.841,1407.04 553.841,1418.29 564.049,1423.5C558.633,1433.71 549.049,1441 541.133,1441C532.799,1441 529.674,1432.88 529.674,1421.42C529.674,1403.92 537.174,1382.04 539.674,1377.46C564.258,1362.67 587.174,1317.46 587.174,1298.09C587.174,1292.25 585.091,1284.96 580.508,1284.96C565.146,1284.96 525.023,1362.45 517.091,1408.51C508.272,1423.67 500.687,1430.79 494.466,1430.79C488.841,1430.79 486.758,1424.75 486.758,1414.13C486.758,1377.67 510.924,1297.04 519.258,1290.38C515.091,1286.21 511.133,1283.71 508.216,1283.71C505.508,1283.71 502.383,1285.59 498.216,1289.54C485.299,1301.63 460.716,1333.5 439.466,1365.38C434.049,1364.54 429.049,1363.92 424.466,1363.92C413.841,1363.92 405.716,1366.84 402.799,1374.75L410.091,1374.75C415.299,1374.75 422.383,1374.96 432.591,1375.79C414.883,1403.5 400.924,1429.54 400.924,1441C400.924,1443.71 401.758,1448.29 408.008,1451.84C418.424,1427.25 431.133,1401 444.258,1376.84C452.799,1377.88 462.799,1379.13 475.091,1381C472.799,1392.46 471.549,1403.09 471.549,1412.04C471.549,1428.92 476.341,1439.96 487.799,1439.96C497.783,1439.96 507.877,1431.72 515.848,1418.67C515.761,1420.06 515.716,1421.39 515.716,1422.67C515.716,1438.71 522.799,1448.92 537.174,1448.92C551.758,1448.92 562.799,1438.5 570.299,1425.79C572.383,1426.21 574.674,1426.42 576.966,1426.42C584.702,1426.42 592.77,1423.99 599.641,1415.27C599.255,1417.67 599.049,1419.82 599.049,1421.63C599.049,1431.42 604.258,1439.13 615.091,1439.13C627.084,1439.13 639.303,1431.98 648.149,1418.6C649.077,1428.88 654.551,1435.59 663.633,1435.59C675.299,1435.59 686.966,1424.13 697.591,1408.92C694.258,1422.46 690.716,1433.71 686.966,1443.29C669.466,1452.04 646.341,1463.09 646.341,1479.96C646.341,1488.5 652.383,1492.04 658.424,1492.04C674.049,1492.04 687.383,1469.34 699.049,1441.21C707.316,1437.21 718.313,1429.97 726.853,1420.36C726.517,1422.37 726.341,1424.33 726.341,1426.21C726.341,1437.88 733.008,1443.5 741.758,1443.5C751.966,1443.5 761.133,1435.38 773.216,1419.34C772.799,1421.63 772.591,1423.71 772.591,1425.38C772.591,1432.67 777.383,1439.96 787.591,1439.96C799.336,1439.96 812.919,1430.24 822.397,1414.97C821.98,1417.49 821.758,1419.75 821.758,1421.63C821.758,1431.42 826.966,1439.13 837.799,1439.13C851.342,1439.13 865.174,1430.01 874.11,1413.11C873.933,1414.99 873.841,1416.8 873.841,1418.5C873.841,1430.79 878.633,1439.96 890.508,1439.96C905.508,1439.96 918.633,1425.38 929.674,1401.63L926.549,1399.96C919.258,1416.21 907.591,1433.29 896.549,1433.29C890.508,1433.29 887.383,1428.09 887.383,1417.25C887.383,1411 888.424,1403.71 890.091,1396.21C920.508,1371 945.508,1317.67 945.508,1299.13C945.508,1293.29 943.008,1283.71 938.633,1283.71C926.149,1283.71 885.355,1357.32 875.84,1402.17ZM657.799,1485.38C654.883,1485.38 652.799,1482.46 652.799,1478.09C652.799,1466.21 668.216,1457.25 684.674,1448.92C673.633,1475.59 663.216,1485.38 657.799,1485.38ZM556.133,1397.67C556.133,1389.13 559.883,1382.67 564.049,1382.67C568.008,1382.67 570.924,1388.71 570.924,1398.29C570.924,1405.79 569.049,1413.09 566.133,1419.34C558.841,1414.54 556.133,1405.17 556.133,1397.67ZM937.591,1300.59C938.216,1300.59 939.049,1301.21 939.049,1303.92C939.049,1317.88 916.133,1364.75 891.966,1389.13C903.424,1348.92 931.966,1300.59 937.591,1300.59ZM501.549,1296.84C493.008,1316 482.591,1346.21 476.549,1373.71C468.633,1371.84 459.049,1369.34 449.674,1367.25C469.049,1332.67 488.633,1304.75 501.549,1296.84ZM579.258,1301.84C579.883,1301.84 580.091,1302.25 580.091,1303.5C580.091,1314.13 561.133,1353.92 541.966,1369.34C551.549,1337.46 574.674,1301.84 579.258,1301.84ZM640.091,1343.71C646.758,1343.71 653.633,1337.67 653.633,1332.46C653.633,1327.67 650.924,1326 646.758,1326C640.091,1326 631.549,1331 631.549,1336.84C631.549,1341.63 635.508,1343.71 640.091,1343.71ZM862.799,1343.71C869.466,1343.71 876.341,1337.67 876.341,1332.46C876.341,1327.67 873.633,1326 869.466,1326C862.799,1326 854.258,1331 854.258,1336.84C854.258,1341.63 858.216,1343.71 862.799,1343.71Z" style="fill:white;fill-rule:nonzero;stroke:black;stroke-width:1.4px;"/>
            </g>
        </g>
    </g>
</svg>
