<?xml version="1.0" encoding="UTF-8" standalone="no"?>
<!DOCTYPE svg PUBLIC "-//W3C//DTD SVG 1.1//EN" "http://www.w3.org/Graphics/SVG/1.1/DTD/svg11.dtd">
<svg width="334px" height="50px" version="1.1" xmlns="http://www.w3.org/2000/svg" xmlns:xlink="http://www.w3.org/1999/xlink" xml:space="preserve" xmlns:serif="http://www.serif.com/" style="fill-rule:evenodd;clip-rule:evenodd;stroke-linejoin:round;stroke-miterlimit:2;">
    <g transform="matrix(0.24,0,0,0.24,-96.2219,-364.009)">
        <path id="FULL-NAME" serif:id="FULL NAME" d="M875.84,1635.16C864.406,1657.21 853.961,1664.83 844.883,1664.83C838.008,1664.83 834.674,1662.33 834.674,1652.33C834.674,1632.74 856.341,1607.54 856.341,1600.66C856.341,1597.74 854.258,1596.08 851.758,1596.08C841.827,1596.08 831.077,1617.06 825.536,1635.07C813.397,1655.73 800.681,1665.87 793.424,1665.87C788.424,1665.87 786.341,1660.87 786.341,1656.7C786.341,1646.7 798.424,1632.54 798.424,1627.74C798.424,1624.62 792.591,1622.95 790.091,1622.54C779.883,1637.54 759.258,1667.95 746.341,1667.95C742.591,1667.95 740.716,1665.45 740.716,1659.83C740.716,1639.62 764.049,1600.87 783.633,1600.87C791.133,1600.87 793.841,1606.29 793.841,1612.54C793.841,1614.83 793.424,1617.54 792.799,1619.83C798.841,1619.83 803.008,1617.74 803.008,1610.87C803.008,1601.49 794.883,1595.24 784.049,1595.24C762.039,1595.24 737.689,1621.11 729.341,1644.11C722.084,1654.78 711.535,1663.3 701.341,1668.16C710.924,1643.37 717.383,1617.95 717.383,1611.08C715.716,1610.66 714.258,1610.45 713.008,1610.45C706.133,1610.45 703.216,1617.12 702.383,1621.08L699.883,1632.12C689.258,1647.33 676.966,1659.62 669.049,1659.62C664.674,1659.62 661.758,1656.08 661.758,1649.41C661.758,1631.91 681.758,1602.12 703.633,1602.12C707.799,1602.12 710.508,1603.16 711.966,1605.24C712.591,1605.04 714.466,1603.58 714.466,1601.08C714.466,1597.54 711.133,1594.41 703.216,1594.41C681.918,1594.41 651.472,1616.81 648.281,1643.77C638.733,1659.24 629.952,1664.83 622.174,1664.83C615.299,1664.83 611.966,1662.33 611.966,1652.33C611.966,1632.74 633.633,1607.54 633.633,1600.66C633.633,1597.74 631.549,1596.08 629.049,1596.08C618.822,1596.08 607.727,1618.34 602.346,1636.67C597.578,1645.61 590.537,1655.66 577.591,1655.66C575.716,1655.66 573.841,1655.45 572.174,1655.04C576.758,1645.87 579.466,1635.87 579.466,1626.7C579.466,1614.2 574.258,1607.54 566.341,1607.54C556.966,1607.54 548.841,1616.29 548.841,1629.62C548.841,1640.04 553.841,1651.29 564.049,1656.49C558.633,1666.7 549.049,1673.99 541.133,1673.99C532.799,1673.99 529.674,1665.87 529.674,1654.41C529.674,1636.91 537.174,1615.04 539.674,1610.45C564.258,1595.66 587.174,1550.45 587.174,1531.08C587.174,1525.24 585.091,1517.95 580.508,1517.95C565.146,1517.95 525.023,1595.44 517.091,1641.5C508.272,1656.66 500.687,1663.79 494.466,1663.79C488.841,1663.79 486.758,1657.74 486.758,1647.12C486.758,1610.66 510.924,1530.04 519.258,1523.37C515.091,1519.2 511.133,1516.7 508.216,1516.7C505.508,1516.7 502.383,1518.58 498.216,1522.54C485.299,1534.62 460.716,1566.49 439.466,1598.37C434.049,1597.54 429.049,1596.91 424.466,1596.91C413.841,1596.91 405.716,1599.83 402.799,1607.74L410.091,1607.74C415.299,1607.74 422.383,1607.95 432.591,1608.79C414.883,1636.49 400.924,1662.54 400.924,1673.99C400.924,1676.7 401.758,1681.29 408.008,1684.83C418.424,1660.24 431.133,1633.99 444.258,1609.83C452.799,1610.87 462.799,1612.12 475.091,1613.99C472.799,1625.45 471.549,1636.08 471.549,1645.04C471.549,1661.91 476.341,1672.95 487.799,1672.95C497.783,1672.95 507.877,1664.72 515.848,1651.67C515.761,1653.05 515.716,1654.38 515.716,1655.66C515.716,1671.7 522.799,1681.91 537.174,1681.91C551.758,1681.91 562.799,1671.49 570.299,1658.79C572.383,1659.2 574.674,1659.41 576.966,1659.41C584.702,1659.41 592.77,1656.98 599.641,1648.26C599.255,1650.66 599.049,1652.81 599.049,1654.62C599.049,1664.41 604.258,1672.12 615.091,1672.12C627.084,1672.12 639.303,1664.97 648.149,1651.59C649.077,1661.88 654.551,1668.58 663.633,1668.58C675.299,1668.58 686.966,1657.12 697.591,1641.91C694.258,1655.45 690.716,1666.7 686.966,1676.29C669.466,1685.04 646.341,1696.08 646.341,1712.95C646.341,1721.49 652.383,1725.04 658.424,1725.04C674.049,1725.04 687.383,1702.33 699.049,1674.2C707.316,1670.2 718.313,1662.96 726.853,1653.35C726.517,1655.37 726.341,1657.33 726.341,1659.2C726.341,1670.87 733.008,1676.49 741.758,1676.49C751.966,1676.49 761.133,1668.37 773.216,1652.33C772.799,1654.62 772.591,1656.7 772.591,1658.37C772.591,1665.66 777.383,1672.95 787.591,1672.95C799.336,1672.95 812.919,1663.23 822.397,1647.97C821.98,1650.49 821.758,1652.74 821.758,1654.62C821.758,1664.41 826.966,1672.12 837.799,1672.12C851.342,1672.12 865.174,1663 874.11,1646.1C873.933,1647.99 873.841,1649.79 873.841,1651.49C873.841,1663.79 878.633,1672.95 890.508,1672.95C905.508,1672.95 918.633,1658.37 929.674,1634.62L926.549,1632.95C919.258,1649.2 907.591,1666.29 896.549,1666.29C890.508,1666.29 887.383,1661.08 887.383,1650.24C887.383,1643.99 888.424,1636.7 890.091,1629.2C920.508,1603.99 945.508,1550.66 945.508,1532.12C945.508,1526.29 943.008,1516.7 938.633,1516.7C926.149,1516.7 885.355,1590.31 875.84,1635.16ZM657.799,1718.37C654.883,1718.37 652.799,1715.45 652.799,1711.08C652.799,1699.2 668.216,1690.24 684.674,1681.91C673.633,1708.58 663.216,1718.37 657.799,1718.37ZM1753.76,1623.37C1753.76,1623.37 1731.47,1593.58 1711.05,1561.7C1711.05,1561.7 1700.84,1562.33 1693.13,1562.33C1683.55,1562.33 1671.88,1561.49 1671.88,1561.49L1670.63,1572.12L1672.09,1573.79C1683.13,1575.04 1685.84,1576.91 1685.84,1583.99L1683.55,1645.66C1683.34,1652.33 1680.42,1655.04 1673.55,1655.87L1672.09,1667.95C1672.09,1667.95 1684.59,1666.7 1694.59,1666.7C1701.88,1666.7 1717.72,1667.33 1717.72,1667.33L1719.59,1655.87L1718.34,1654.83C1718.34,1654.83 1713.34,1655.24 1711.47,1655.24C1706.88,1655.24 1705.42,1653.37 1705.22,1647.54L1705.22,1604.41L1707.09,1604.41C1707.09,1604.41 1728.76,1633.37 1753.76,1670.24L1775.22,1668.16L1777.51,1583.79C1777.72,1577.33 1780.63,1574.62 1788.34,1573.58L1789.17,1561.49C1789.17,1561.7 1776.47,1562.33 1767.92,1562.33C1759.8,1562.33 1744.17,1561.7 1744.17,1561.7L1742.92,1572.74L1743.76,1573.99L1749.38,1573.99C1753.34,1573.99 1754.8,1575.87 1755.01,1581.08L1755.63,1623.37L1753.76,1623.37ZM1517.51,1623.37C1517.51,1623.37 1495.21,1593.58 1474.8,1561.7C1474.8,1561.7 1464.59,1562.33 1456.88,1562.33C1447.3,1562.33 1435.63,1561.49 1435.63,1561.49L1434.38,1572.12L1435.84,1573.79C1446.88,1575.04 1449.59,1576.91 1449.59,1583.99L1447.3,1645.66C1447.09,1652.33 1444.17,1655.04 1437.3,1655.87L1435.84,1667.95C1435.84,1667.95 1448.34,1666.7 1458.34,1666.7C1465.63,1666.7 1481.46,1667.33 1481.46,1667.33L1483.34,1655.87L1482.09,1654.83C1482.09,1654.83 1477.09,1655.24 1475.21,1655.24C1470.63,1655.24 1469.17,1653.37 1468.96,1647.54L1468.96,1604.41L1470.84,1604.41C1470.84,1604.41 1492.51,1633.37 1517.51,1670.24L1538.97,1668.16L1541.26,1583.79C1541.47,1577.33 1544.38,1574.62 1552.09,1573.58L1552.92,1561.49C1552.92,1561.7 1540.22,1562.33 1531.67,1562.33C1523.55,1562.33 1507.92,1561.7 1507.92,1561.7L1506.67,1572.74L1507.51,1573.99L1513.13,1573.99C1517.09,1573.99 1518.55,1575.87 1518.76,1581.08L1519.38,1623.37L1517.51,1623.37ZM1387.92,1623.37C1387.92,1623.37 1365.63,1593.58 1345.21,1561.7C1345.21,1561.7 1335.01,1562.33 1327.3,1562.33C1317.71,1562.33 1306.05,1561.49 1306.05,1561.49L1304.8,1572.12L1306.26,1573.79C1317.3,1575.04 1320.01,1576.91 1320.01,1583.99L1317.71,1645.66C1317.51,1652.33 1314.59,1655.04 1307.71,1655.87L1306.26,1667.95C1306.26,1667.95 1318.76,1666.7 1328.76,1666.7C1336.05,1666.7 1351.88,1667.33 1351.88,1667.33L1353.76,1655.87L1352.51,1654.83C1352.51,1654.83 1347.51,1655.24 1345.63,1655.24C1341.05,1655.24 1339.59,1653.37 1339.38,1647.54L1339.38,1604.41L1341.26,1604.41C1341.26,1604.41 1362.92,1633.37 1387.92,1670.24L1409.38,1668.16L1411.67,1583.79C1411.88,1577.33 1414.8,1574.62 1422.51,1573.58L1423.34,1561.49C1423.34,1561.7 1410.63,1562.33 1402.09,1562.33C1393.96,1562.33 1378.34,1561.7 1378.34,1561.7L1377.09,1572.74L1377.92,1573.99L1383.55,1573.99C1387.51,1573.99 1388.96,1575.87 1389.17,1581.08L1389.8,1623.37L1387.92,1623.37ZM1133.34,1627.12L1147.09,1654.2C1151.88,1664.62 1157.92,1669.2 1166.05,1669.2L1187.92,1667.54L1189.38,1657.95L1187.92,1656.08C1181.26,1656.08 1175.63,1651.49 1169.38,1641.91L1155.63,1621.08C1170.01,1613.79 1177.92,1602.95 1177.92,1590.24C1177.92,1571.49 1163.13,1561.49 1135.42,1561.49C1135.42,1561.49 1115.21,1562.33 1107.92,1562.33C1101.05,1562.33 1085.63,1562.12 1085.63,1562.12L1083.96,1572.95L1085.21,1574.2C1085.21,1574.2 1088.76,1573.99 1091.26,1573.99C1095.01,1573.99 1096.26,1575.66 1096.26,1581.7L1096.26,1642.33C1096.26,1651.49 1093.55,1654.41 1084.38,1655.66L1082.92,1667.95C1082.92,1667.95 1097.51,1666.7 1108.76,1666.91C1116.26,1666.91 1132.92,1667.12 1132.92,1667.33L1134.59,1656.08L1133.96,1655.04C1122.92,1654.62 1121.67,1653.37 1121.67,1642.95L1121.88,1627.12L1133.34,1627.12ZM982.715,1666.7C990.84,1666.7 1005.84,1668.58 1013.55,1668.79C1046.46,1668.79 1067.92,1652.33 1067.92,1627.12C1067.92,1610.24 1055.21,1600.45 1038.55,1596.08C1051.67,1589.2 1060.84,1578.79 1060.84,1564.2C1060.84,1543.16 1045.42,1531.91 1016.67,1531.91C1016.67,1531.91 992.09,1532.95 984.798,1532.95C977.507,1532.95 955.84,1532.54 955.84,1532.54L953.965,1545.24L955.215,1546.91C955.215,1546.91 959.798,1546.49 962.298,1546.49C967.507,1546.49 969.173,1549.2 969.173,1556.91L968.965,1638.16C968.965,1648.99 965.632,1652.54 953.757,1654.62L952.09,1668.79C952.09,1668.79 970.84,1666.7 982.715,1666.7ZM1603.13,1642.33C1603.13,1638.16 1602.92,1632.33 1603.34,1622.33C1606.47,1622.12 1611.26,1621.49 1616.47,1621.49C1624.8,1621.49 1638.34,1621.91 1638.34,1621.91L1640.84,1606.49L1639.17,1604.62C1639.17,1604.62 1625.22,1606.08 1619.59,1606.08C1614.59,1606.08 1607.51,1605.87 1604.17,1605.87L1605.22,1582.74C1605.22,1578.37 1606.05,1577.74 1613.55,1577.74C1631.47,1577.74 1633.97,1578.99 1633.97,1587.54C1633.97,1589.83 1633.55,1593.99 1633.55,1593.99L1651.26,1592.74C1652.3,1577.54 1655.22,1562.33 1655.22,1562.33L1653.76,1560.45C1643.34,1561.7 1625.01,1562.33 1601.26,1562.33C1587.72,1562.33 1567.51,1561.91 1567.51,1561.91L1566.05,1572.74L1567.51,1574.2C1567.51,1574.2 1570.63,1573.99 1572.51,1573.99C1576.67,1573.99 1577.72,1575.66 1577.72,1582.74L1577.51,1641.91C1577.51,1651.49 1574.8,1654.83 1565.63,1656.08L1564.17,1668.37C1564.17,1668.37 1579.8,1666.7 1595.63,1666.7C1618.34,1666.7 1649.59,1667.74 1649.59,1667.74L1651.67,1665.87C1653.13,1649.62 1656.26,1634.62 1656.26,1634.62L1654.8,1632.74L1638.55,1633.99C1636.05,1649.83 1632.92,1652.12 1613.34,1652.12C1603.97,1652.12 1603.13,1650.87 1603.13,1642.33ZM1237.3,1642.33C1237.3,1638.16 1237.09,1632.33 1237.51,1622.33C1240.63,1622.12 1245.42,1621.49 1250.63,1621.49C1258.96,1621.49 1272.51,1621.91 1272.51,1621.91L1275.01,1606.49L1273.34,1604.62C1273.34,1604.62 1259.38,1606.08 1253.76,1606.08C1248.76,1606.08 1241.67,1605.87 1238.34,1605.87L1239.38,1582.74C1239.38,1578.37 1240.21,1577.74 1247.71,1577.74C1265.63,1577.74 1268.13,1578.99 1268.13,1587.54C1268.13,1589.83 1267.71,1593.99 1267.71,1593.99L1285.42,1592.74C1286.46,1577.54 1289.38,1562.33 1289.38,1562.33L1287.92,1560.45C1277.51,1561.7 1259.17,1562.33 1235.42,1562.33C1221.88,1562.33 1201.67,1561.91 1201.67,1561.91L1200.21,1572.74L1201.67,1574.2C1201.67,1574.2 1204.8,1573.99 1206.67,1573.99C1210.84,1573.99 1211.88,1575.66 1211.88,1582.74L1211.67,1641.91C1211.67,1651.49 1208.96,1654.83 1199.8,1656.08L1198.34,1668.37C1198.34,1668.37 1213.96,1666.7 1229.8,1666.7C1252.51,1666.7 1283.76,1667.74 1283.76,1667.74L1285.84,1665.87C1287.3,1649.62 1290.42,1634.62 1290.42,1634.62L1288.96,1632.74L1272.71,1633.99C1270.21,1649.83 1267.09,1652.12 1247.51,1652.12C1238.13,1652.12 1237.3,1650.87 1237.3,1642.33ZM556.133,1630.66C556.133,1622.12 559.883,1615.66 564.049,1615.66C568.008,1615.66 570.924,1621.7 570.924,1631.29C570.924,1638.79 569.049,1646.08 566.133,1652.33C558.841,1647.54 556.133,1638.16 556.133,1630.66ZM1016.05,1608.16C1029.8,1611.29 1037.09,1618.99 1037.09,1630.04C1037.09,1643.16 1029.17,1650.87 1015.63,1650.87C1001.47,1650.87 996.048,1647.33 996.048,1638.58L996.882,1608.37L1016.05,1608.16ZM937.591,1533.58C938.216,1533.58 939.049,1534.2 939.049,1536.91C939.049,1550.87 916.133,1597.74 891.966,1622.12C903.424,1581.91 931.966,1533.58 937.591,1533.58ZM1122.3,1610.66C1122.51,1601.29 1122.92,1592.12 1123.76,1580.66C1123.76,1577.74 1124.38,1577.12 1126.67,1577.12C1143.13,1577.12 1150.84,1582.33 1150.84,1593.37C1150.84,1606.08 1141.88,1610.45 1137.09,1612.33L1122.3,1610.66ZM501.549,1529.83C493.008,1548.99 482.591,1579.2 476.549,1606.7C468.633,1604.83 459.049,1602.33 449.674,1600.24C469.049,1565.66 488.633,1537.74 501.549,1529.83ZM579.258,1534.83C579.883,1534.83 580.091,1535.24 580.091,1536.49C580.091,1547.12 561.133,1586.91 541.966,1602.33C551.549,1570.45 574.674,1534.83 579.258,1534.83ZM997.298,1589.83C997.507,1580.87 998.132,1564.41 998.965,1552.95C999.173,1550.04 1000.01,1549.2 1002.72,1549.2C1022.3,1549.2 1031.46,1555.66 1031.46,1569.62C1031.46,1586.7 1017.09,1591.7 1017.09,1591.7C1013.13,1591.7 997.298,1589.83 997.298,1589.83ZM862.799,1576.7C869.466,1576.7 876.341,1570.66 876.341,1565.45C876.341,1560.66 873.633,1558.99 869.466,1558.99C862.799,1558.99 854.258,1563.99 854.258,1569.83C854.258,1574.62 858.216,1576.7 862.799,1576.7ZM640.091,1576.7C646.758,1576.7 653.633,1570.66 653.633,1565.45C653.633,1560.66 650.924,1558.99 646.758,1558.99C640.091,1558.99 631.549,1563.99 631.549,1569.83C631.549,1574.62 635.508,1576.7 640.091,1576.7Z" style="fill:white;fill-rule:nonzero;"/>
    </g>
</svg>
